<?xml version="1.0" encoding="utf-8"?>
<!-- Generator: Adobe Illustrator 26.2.1, SVG Export Plug-In . SVG Version: 6.00 Build 0)  -->
<svg version="1.1" id="Layer_1" xmlns="http://www.w3.org/2000/svg" xmlns:xlink="http://www.w3.org/1999/xlink" x="0px" y="0px"
	 viewBox="0 0 42 50" style="enable-background:new 0 0 42 50;" xml:space="preserve">
<style type="text/css">
	.st0{fill:#FFFFFF;}
</style>
<g>
	<path class="st0" d="M35.7,6.1C31.8,2.2,26.6,0,21,0S10.2,2.2,6.3,6.1c-4,3.9-6.1,9.2-6.1,14.7c0,5.6,2.2,10.8,6.1,14.7l14.1,14.1
		c0.2,0.2,0.4,0.2,0.6,0.2s0.4-0.1,0.6-0.2l14.1-14.1C43.9,27.4,43.9,14.2,35.7,6.1z M27.5,27.3C25.7,29,23.4,30,21,30
		s-4.7-0.9-6.5-2.7c-3.6-3.6-3.6-9.4,0-12.9c1.7-1.7,4-2.7,6.5-2.7c2.4,0,4.7,0.9,6.5,2.7C31,17.9,31,23.7,27.5,27.3z"/>
</g>
</svg>
